<svg xmlns="http://www.w3.org/2000/svg" viewBox="0 0 100 100">
  <defs>
    <linearGradient id="bg" x1="0%" y1="0%" x2="100%" y2="100%">
      <stop offset="0%" style="stop-color:#84d2c5;stop-opacity:1" />
      <stop offset="100%" style="stop-color:#6ab8ab;stop-opacity:1" />
    </linearGradient>
  </defs>
  <!-- Фон -->
  <rect width="100" height="100" rx="20" fill="url(#bg)"/>
  <!-- Здание -->
  <path d="M30 75V35a5 5 0 015-5h30a5 5 0 015 5v40" fill="none" stroke="white" stroke-width="4" stroke-linecap="round" stroke-linejoin="round"/>
  <path d="M50 30V25a5 5 0 015-5h10a2 2 0 012 2v8" fill="none" stroke="white" stroke-width="4" stroke-linecap="round" stroke-linejoin="round"/>
  <!-- Вход -->
  <path d="M45 75v-8a3 3 0 013-3h4a3 3 0 013 3v8" fill="white"/>
  <!-- Окна -->
  <rect x="37" y="38" width="10" height="10" rx="2" fill="white" opacity="0.9"/>
  <rect x="53" y="38" width="10" height="10" rx="2" fill="white" opacity="0.9"/>
  <rect x="37" y="53" width="10" height="10" rx="2" fill="white" opacity="0.9"/>
  <rect x="53" y="53" width="10" height="10" rx="2" fill="white" opacity="0.9"/>
</svg>
